<svg xmlns="http://www.w3.org/2000/svg" width="36" height="36" viewBox="0 0 36 36" fill="none">
  <rect x="9" y="9" width="18" height="18" rx="3" fill="black"/>
  <path d="M25 16.2966H20.8875C20.8583 15.9861 20.7806 15.7044 20.6542 15.4515C20.5326 15.1987 20.3625 14.9813 20.1438 14.7994C19.9299 14.6131 19.6698 14.4712 19.3635 14.3736C19.0573 14.2715 18.7097 14.2205 18.3208 14.2205C17.6403 14.2205 17.0642 14.3714 16.5927 14.673C16.126 14.9747 15.7712 15.4072 15.5281 15.9705C15.2899 16.5339 15.1708 17.2104 15.1708 18C15.1708 18.834 15.2924 19.5326 15.5354 20.096C15.7833 20.6549 16.1406 21.0764 16.6073 21.3603C17.074 21.6397 17.6354 21.7795 18.2917 21.7795C18.666 21.7795 19.0014 21.7373 19.2979 21.653C19.5944 21.5643 19.8521 21.4379 20.0708 21.2738C20.2896 21.1096 20.467 20.9122 20.6031 20.6816C20.7441 20.4465 20.8389 20.1825 20.8875 19.8897L25 19.9163C24.9514 20.493 24.774 21.0808 24.4677 21.6797C24.1615 22.2741 23.7264 22.8241 23.1625 23.3298C22.6035 23.8311 21.9108 24.2348 21.0844 24.5409C20.258 24.847 19.2979 25 18.2042 25C16.8333 25 15.6035 24.7316 14.5146 24.1949C13.4306 23.6581 12.5726 22.8685 11.9406 21.826C11.3135 20.7836 11 19.5082 11 18C11 16.4829 11.3208 15.2053 11.9625 14.1673C12.6042 13.1248 13.4694 12.3375 14.5583 11.8051C15.6472 11.2684 16.8625 11 18.2042 11C19.1472 11 20.0149 11.1176 20.8073 11.3527C21.5997 11.5878 22.2948 11.9316 22.8927 12.384C23.4906 12.8321 23.9719 13.3843 24.3365 14.0409C24.701 14.6974 24.9222 15.4493 25 16.2966Z" fill="white"/>
</svg>